<svg width="52" height="26" viewBox="0 0 52 26" fill="none" xmlns="http://www.w3.org/2000/svg"><rect fill="#FF0000" x="0" y="0" width="1" height="26"/><rect fill="#FF0500" x="1" y="0" width="1" height="26"/><rect fill="#FF0A00" x="2" y="0" width="1" height="26"/><rect fill="#FF0F00" x="3" y="0" width="1" height="26"/><rect fill="#FF1400" x="4" y="0" width="1" height="26"/><rect fill="#FF1900" x="5" y="0" width="1" height="26"/><rect fill="#FF1E00" x="6" y="0" width="1" height="26"/><rect fill="#FF2300" x="7" y="0" width="1" height="26"/><rect fill="#FF2800" x="8" y="0" width="1" height="26"/><rect fill="#FF2D00" x="9" y="0" width="1" height="26"/><rect fill="#FF3200" x="10" y="0" width="1" height="26"/><rect fill="#FF3700" x="11" y="0" width="1" height="26"/><rect fill="#FF3C00" x="12" y="0" width="1" height="26"/><rect fill="#FF4100" x="13" y="0" width="1" height="26"/><rect fill="#FF4600" x="14" y="0" width="1" height="26"/><rect fill="#FF4B00" x="15" y="0" width="1" height="26"/><rect fill="#FF5000" x="16" y="0" width="1" height="26"/><rect fill="#FF5500" x="17" y="0" width="1" height="26"/><rect fill="#FF5A00" x="18" y="0" width="1" height="26"/><rect fill="#FF5F00" x="19" y="0" width="1" height="26"/><rect fill="#FF6400" x="20" y="0" width="1" height="26"/><rect fill="#FF6900" x="21" y="0" width="1" height="26"/><rect fill="#FF6E00" x="22" y="0" width="1" height="26"/><rect fill="#FF7300" x="23" y="0" width="1" height="26"/><rect fill="#FF7800" x="24" y="0" width="1" height="26"/><rect fill="#FF7D00" x="25" y="0" width="1" height="26"/><rect fill="#FF8200" x="26" y="0" width="1" height="26"/><rect fill="#FF8700" x="27" y="0" width="1" height="26"/><rect fill="#FF8C00" x="28" y="0" width="1" height="26"/><rect fill="#FF9100" x="29" y="0" width="1" height="26"/><rect fill="#FF9600" x="30" y="0" width="1" height="26"/><rect fill="#FF9B00" x="31" y="0" width="1" height="26"/><rect fill="#FFA000" x="32" y="0" width="1" height="26"/><rect fill="#FFA500" x="33" y="0" width="1" height="26"/><rect fill="#FFAA00" x="34" y="0" width="1" height="26"/><rect fill="#FFAF00" x="35" y="0" width="1" height="26"/><rect fill="#FFB400" x="36" y="0" width="1" height="26"/><rect fill="#FFB900" x="37" y="0" width="1" height="26"/><rect fill="#FFBE00" x="38" y="0" width="1" height="26"/><rect fill="#FFC300" x="39" y="0" width="1" height="26"/><rect fill="#FFC800" x="40" y="0" width="1" height="26"/><rect fill="#FFCD00" x="41" y="0" width="1" height="26"/><rect fill="#FFD200" x="42" y="0" width="1" height="26"/><rect fill="#FFD700" x="43" y="0" width="1" height="26"/><rect fill="#FFDC00" x="44" y="0" width="1" height="26"/><rect fill="#FFE100" x="45" y="0" width="1" height="26"/><rect fill="#FFE600" x="46" y="0" width="1" height="26"/><rect fill="#FFEB00" x="47" y="0" width="1" height="26"/><rect fill="#FFF000" x="48" y="0" width="1" height="26"/><rect fill="#FFF500" x="49" y="0" width="1" height="26"/><rect fill="#FFFA00" x="50" y="0" width="1" height="26"/><rect fill="#FFFF00" x="51" y="0" width="1" height="26"/></svg>