<svg width="52" height="26" viewBox="0 0 52 26" fill="none" xmlns="http://www.w3.org/2000/svg"><rect fill="#0052FF" x="0" y="0" width="1" height="26"/><rect fill="#0555FF" x="1" y="0" width="1" height="26"/><rect fill="#0A58FF" x="2" y="0" width="1" height="26"/><rect fill="#0F5CFF" x="3" y="0" width="1" height="26"/><rect fill="#145FFF" x="4" y="0" width="1" height="26"/><rect fill="#1962FF" x="5" y="0" width="1" height="26"/><rect fill="#1E66FF" x="6" y="0" width="1" height="26"/><rect fill="#2369FF" x="7" y="0" width="1" height="26"/><rect fill="#286DFF" x="8" y="0" width="1" height="26"/><rect fill="#2D70FF" x="9" y="0" width="1" height="26"/><rect fill="#3273FF" x="10" y="0" width="1" height="26"/><rect fill="#3777FF" x="11" y="0" width="1" height="26"/><rect fill="#3C7AFF" x="12" y="0" width="1" height="26"/><rect fill="#417EFF" x="13" y="0" width="1" height="26"/><rect fill="#4681FF" x="14" y="0" width="1" height="26"/><rect fill="#4B84FF" x="15" y="0" width="1" height="26"/><rect fill="#5088FF" x="16" y="0" width="1" height="26"/><rect fill="#558BFF" x="17" y="0" width="1" height="26"/><rect fill="#5A8FFF" x="18" y="0" width="1" height="26"/><rect fill="#5F92FF" x="19" y="0" width="1" height="26"/><rect fill="#6495FF" x="20" y="0" width="1" height="26"/><rect fill="#6999FF" x="21" y="0" width="1" height="26"/><rect fill="#6E9CFF" x="22" y="0" width="1" height="26"/><rect fill="#73A0FF" x="23" y="0" width="1" height="26"/><rect fill="#78A3FF" x="24" y="0" width="1" height="26"/><rect fill="#7DA6FF" x="25" y="0" width="1" height="26"/><rect fill="#82AAFF" x="26" y="0" width="1" height="26"/><rect fill="#87ADFF" x="27" y="0" width="1" height="26"/><rect fill="#8CB0FF" x="28" y="0" width="1" height="26"/><rect fill="#91B4FF" x="29" y="0" width="1" height="26"/><rect fill="#96B7FF" x="30" y="0" width="1" height="26"/><rect fill="#9BBBFF" x="31" y="0" width="1" height="26"/><rect fill="#A0BEFF" x="32" y="0" width="1" height="26"/><rect fill="#A5C1FF" x="33" y="0" width="1" height="26"/><rect fill="#AAC5FF" x="34" y="0" width="1" height="26"/><rect fill="#AFC8FF" x="35" y="0" width="1" height="26"/><rect fill="#B4CCFF" x="36" y="0" width="1" height="26"/><rect fill="#B9CFFF" x="37" y="0" width="1" height="26"/><rect fill="#BED2FF" x="38" y="0" width="1" height="26"/><rect fill="#C3D6FF" x="39" y="0" width="1" height="26"/><rect fill="#C8D9FF" x="40" y="0" width="1" height="26"/><rect fill="#CDDDFF" x="41" y="0" width="1" height="26"/><rect fill="#D2E0FF" x="42" y="0" width="1" height="26"/><rect fill="#D7E3FF" x="43" y="0" width="1" height="26"/><rect fill="#DCE7FF" x="44" y="0" width="1" height="26"/><rect fill="#E1EAFF" x="45" y="0" width="1" height="26"/><rect fill="#E6EEFF" x="46" y="0" width="1" height="26"/><rect fill="#EBF1FF" x="47" y="0" width="1" height="26"/><rect fill="#F0F4FF" x="48" y="0" width="1" height="26"/><rect fill="#F5F8FF" x="49" y="0" width="1" height="26"/><rect fill="#FAFBFF" x="50" y="0" width="1" height="26"/><rect fill="#FFFFFF" x="51" y="0" width="1" height="26"/></svg>