<svg width="52" height="26" viewBox="0 0 52 26" fill="none" xmlns="http://www.w3.org/2000/svg"><rect fill="#FFFFFF" x="0" y="0" width="1" height="26"/><rect fill="#FAFAFA" x="1" y="0" width="1" height="26"/><rect fill="#F5F5F5" x="2" y="0" width="1" height="26"/><rect fill="#F0F0F0" x="3" y="0" width="1" height="26"/><rect fill="#EBEBEB" x="4" y="0" width="1" height="26"/><rect fill="#E6E6E6" x="5" y="0" width="1" height="26"/><rect fill="#E1E1E1" x="6" y="0" width="1" height="26"/><rect fill="#DCDCDC" x="7" y="0" width="1" height="26"/><rect fill="#D7D7D7" x="8" y="0" width="1" height="26"/><rect fill="#D2D2D2" x="9" y="0" width="1" height="26"/><rect fill="#CDCDCD" x="10" y="0" width="1" height="26"/><rect fill="#C8C8C8" x="11" y="0" width="1" height="26"/><rect fill="#C3C3C3" x="12" y="0" width="1" height="26"/><rect fill="#BEBEBE" x="13" y="0" width="1" height="26"/><rect fill="#B9B9B9" x="14" y="0" width="1" height="26"/><rect fill="#B4B4B4" x="15" y="0" width="1" height="26"/><rect fill="#AFAFAF" x="16" y="0" width="1" height="26"/><rect fill="#AAAAAA" x="17" y="0" width="1" height="26"/><rect fill="#A5A5A5" x="18" y="0" width="1" height="26"/><rect fill="#A0A0A0" x="19" y="0" width="1" height="26"/><rect fill="#9B9B9B" x="20" y="0" width="1" height="26"/><rect fill="#969696" x="21" y="0" width="1" height="26"/><rect fill="#919191" x="22" y="0" width="1" height="26"/><rect fill="#8C8C8C" x="23" y="0" width="1" height="26"/><rect fill="#878787" x="24" y="0" width="1" height="26"/><rect fill="#828282" x="25" y="0" width="1" height="26"/><rect fill="#7D7D7D" x="26" y="0" width="1" height="26"/><rect fill="#787878" x="27" y="0" width="1" height="26"/><rect fill="#737373" x="28" y="0" width="1" height="26"/><rect fill="#6E6E6E" x="29" y="0" width="1" height="26"/><rect fill="#696969" x="30" y="0" width="1" height="26"/><rect fill="#646464" x="31" y="0" width="1" height="26"/><rect fill="#5F5F5F" x="32" y="0" width="1" height="26"/><rect fill="#5A5A5A" x="33" y="0" width="1" height="26"/><rect fill="#555555" x="34" y="0" width="1" height="26"/><rect fill="#505050" x="35" y="0" width="1" height="26"/><rect fill="#4B4B4B" x="36" y="0" width="1" height="26"/><rect fill="#464646" x="37" y="0" width="1" height="26"/><rect fill="#414141" x="38" y="0" width="1" height="26"/><rect fill="#3C3C3C" x="39" y="0" width="1" height="26"/><rect fill="#373737" x="40" y="0" width="1" height="26"/><rect fill="#323232" x="41" y="0" width="1" height="26"/><rect fill="#2D2D2D" x="42" y="0" width="1" height="26"/><rect fill="#282828" x="43" y="0" width="1" height="26"/><rect fill="#232323" x="44" y="0" width="1" height="26"/><rect fill="#1E1E1E" x="45" y="0" width="1" height="26"/><rect fill="#191919" x="46" y="0" width="1" height="26"/><rect fill="#141414" x="47" y="0" width="1" height="26"/><rect fill="#0F0F0F" x="48" y="0" width="1" height="26"/><rect fill="#0A0A0A" x="49" y="0" width="1" height="26"/><rect fill="#050505" x="50" y="0" width="1" height="26"/><rect fill="#000000" x="51" y="0" width="1" height="26"/></svg>