<svg width="52" height="26" viewBox="0 0 52 26" fill="none" xmlns="http://www.w3.org/2000/svg"><rect fill="#000000" x="0" y="0" width="1" height="26"/><rect fill="#040406" x="1" y="0" width="1" height="26"/><rect fill="#08080C" x="2" y="0" width="1" height="26"/><rect fill="#0D0D12" x="3" y="0" width="1" height="26"/><rect fill="#111118" x="4" y="0" width="1" height="26"/><rect fill="#15151E" x="5" y="0" width="1" height="26"/><rect fill="#1A1A24" x="6" y="0" width="1" height="26"/><rect fill="#1E1E2A" x="7" y="0" width="1" height="26"/><rect fill="#222230" x="8" y="0" width="1" height="26"/><rect fill="#272736" x="9" y="0" width="1" height="26"/><rect fill="#2B2B3C" x="10" y="0" width="1" height="26"/><rect fill="#302F42" x="11" y="0" width="1" height="26"/><rect fill="#343448" x="12" y="0" width="1" height="26"/><rect fill="#38384E" x="13" y="0" width="1" height="26"/><rect fill="#3D3C55" x="14" y="0" width="1" height="26"/><rect fill="#41415B" x="15" y="0" width="1" height="26"/><rect fill="#454561" x="16" y="0" width="1" height="26"/><rect fill="#4A4A67" x="17" y="0" width="1" height="26"/><rect fill="#4E4E6D" x="18" y="0" width="1" height="26"/><rect fill="#535372" x="19" y="0" width="1" height="26"/><rect fill="#575977" x="20" y="0" width="1" height="26"/><rect fill="#5B5F7B" x="21" y="0" width="1" height="26"/><rect fill="#60657F" x="22" y="0" width="1" height="26"/><rect fill="#646B84" x="23" y="0" width="1" height="26"/><rect fill="#687188" x="24" y="0" width="1" height="26"/><rect fill="#6D778D" x="25" y="0" width="1" height="26"/><rect fill="#717D91" x="26" y="0" width="1" height="26"/><rect fill="#758395" x="27" y="0" width="1" height="26"/><rect fill="#7A899A" x="28" y="0" width="1" height="26"/><rect fill="#7E8F9E" x="29" y="0" width="1" height="26"/><rect fill="#8395A2" x="30" y="0" width="1" height="26"/><rect fill="#879BA7" x="31" y="0" width="1" height="26"/><rect fill="#8BA1AB" x="32" y="0" width="1" height="26"/><rect fill="#90A7B0" x="33" y="0" width="1" height="26"/><rect fill="#94ADB4" x="34" y="0" width="1" height="26"/><rect fill="#98B3B8" x="35" y="0" width="1" height="26"/><rect fill="#9DB9BD" x="36" y="0" width="1" height="26"/><rect fill="#A1BFC1" x="37" y="0" width="1" height="26"/><rect fill="#A6C6C6" x="38" y="0" width="1" height="26"/><rect fill="#ACCACA" x="39" y="0" width="1" height="26"/><rect fill="#B3CECE" x="40" y="0" width="1" height="26"/><rect fill="#BAD3D3" x="41" y="0" width="1" height="26"/><rect fill="#C1D7D7" x="42" y="0" width="1" height="26"/><rect fill="#C8DBDB" x="43" y="0" width="1" height="26"/><rect fill="#CFE0E0" x="44" y="0" width="1" height="26"/><rect fill="#D5E4E4" x="45" y="0" width="1" height="26"/><rect fill="#DCE9E9" x="46" y="0" width="1" height="26"/><rect fill="#E3EDED" x="47" y="0" width="1" height="26"/><rect fill="#EAF1F1" x="48" y="0" width="1" height="26"/><rect fill="#F1F6F6" x="49" y="0" width="1" height="26"/><rect fill="#F8FAFA" x="50" y="0" width="1" height="26"/><rect fill="#FFFFFF" x="51" y="0" width="1" height="26"/></svg>