<svg width="52" height="26" viewBox="0 0 52 26" fill="none" xmlns="http://www.w3.org/2000/svg"><rect fill="#000000" x="0" y="0" width="1" height="26"/><rect fill="#060614" x="1" y="0" width="1" height="26"/><rect fill="#0C0C28" x="2" y="0" width="1" height="26"/><rect fill="#12123D" x="3" y="0" width="1" height="26"/><rect fill="#181851" x="4" y="0" width="1" height="26"/><rect fill="#1E1E66" x="5" y="0" width="1" height="26"/><rect fill="#24247A" x="6" y="0" width="1" height="26"/><rect fill="#2A2687" x="7" y="0" width="1" height="26"/><rect fill="#302691" x="8" y="0" width="1" height="26"/><rect fill="#36269B" x="9" y="0" width="1" height="26"/><rect fill="#3C26A5" x="10" y="0" width="1" height="26"/><rect fill="#4226AF" x="11" y="0" width="1" height="26"/><rect fill="#4826B9" x="12" y="0" width="1" height="26"/><rect fill="#5026BB" x="13" y="0" width="1" height="26"/><rect fill="#5C28B1" x="14" y="0" width="1" height="26"/><rect fill="#682AA7" x="15" y="0" width="1" height="26"/><rect fill="#742C9D" x="16" y="0" width="1" height="26"/><rect fill="#802E93" x="17" y="0" width="1" height="26"/><rect fill="#8C3089" x="18" y="0" width="1" height="26"/><rect fill="#99337F" x="19" y="0" width="1" height="26"/><rect fill="#A83472" x="20" y="0" width="1" height="26"/><rect fill="#B83664" x="21" y="0" width="1" height="26"/><rect fill="#C83856" x="22" y="0" width="1" height="26"/><rect fill="#D83A48" x="23" y="0" width="1" height="26"/><rect fill="#E83C3A" x="24" y="0" width="1" height="26"/><rect fill="#F83E2C" x="25" y="0" width="1" height="26"/><rect fill="#FD4523" x="26" y="0" width="1" height="26"/><rect fill="#F94F1D" x="27" y="0" width="1" height="26"/><rect fill="#F55917" x="28" y="0" width="1" height="26"/><rect fill="#F16311" x="29" y="0" width="1" height="26"/><rect fill="#ED6D0B" x="30" y="0" width="1" height="26"/><rect fill="#E97705" x="31" y="0" width="1" height="26"/><rect fill="#E58100" x="32" y="0" width="1" height="26"/><rect fill="#E58B04" x="33" y="0" width="1" height="26"/><rect fill="#E59508" x="34" y="0" width="1" height="26"/><rect fill="#E59F0C" x="35" y="0" width="1" height="26"/><rect fill="#E5A910" x="36" y="0" width="1" height="26"/><rect fill="#E5B314" x="37" y="0" width="1" height="26"/><rect fill="#E5BD18" x="38" y="0" width="1" height="26"/><rect fill="#E5C325" x="39" y="0" width="1" height="26"/><rect fill="#E5C935" x="40" y="0" width="1" height="26"/><rect fill="#E5CF45" x="41" y="0" width="1" height="26"/><rect fill="#E5D555" x="42" y="0" width="1" height="26"/><rect fill="#E5DB65" x="43" y="0" width="1" height="26"/><rect fill="#E5E175" x="44" y="0" width="1" height="26"/><rect fill="#E6E687" x="45" y="0" width="1" height="26"/><rect fill="#EAEA9B" x="46" y="0" width="1" height="26"/><rect fill="#EEEEAF" x="47" y="0" width="1" height="26"/><rect fill="#F2F2C3" x="48" y="0" width="1" height="26"/><rect fill="#F6F6D7" x="49" y="0" width="1" height="26"/><rect fill="#FAFAEB" x="50" y="0" width="1" height="26"/><rect fill="#FFFFFF" x="51" y="0" width="1" height="26"/></svg>