<svg width="52" height="26" viewBox="0 0 52 26" fill="none" xmlns="http://www.w3.org/2000/svg"><rect fill="#00FFFF" x="0" y="0" width="1" height="26"/><rect fill="#05FAFF" x="1" y="0" width="1" height="26"/><rect fill="#0AF5FF" x="2" y="0" width="1" height="26"/><rect fill="#0FF0FF" x="3" y="0" width="1" height="26"/><rect fill="#14EBFF" x="4" y="0" width="1" height="26"/><rect fill="#19E6FF" x="5" y="0" width="1" height="26"/><rect fill="#1EE1FF" x="6" y="0" width="1" height="26"/><rect fill="#23DCFF" x="7" y="0" width="1" height="26"/><rect fill="#28D7FF" x="8" y="0" width="1" height="26"/><rect fill="#2DD2FF" x="9" y="0" width="1" height="26"/><rect fill="#32CDFF" x="10" y="0" width="1" height="26"/><rect fill="#37C8FF" x="11" y="0" width="1" height="26"/><rect fill="#3CC3FF" x="12" y="0" width="1" height="26"/><rect fill="#41BEFF" x="13" y="0" width="1" height="26"/><rect fill="#46B9FF" x="14" y="0" width="1" height="26"/><rect fill="#4BB4FF" x="15" y="0" width="1" height="26"/><rect fill="#50AFFF" x="16" y="0" width="1" height="26"/><rect fill="#55AAFF" x="17" y="0" width="1" height="26"/><rect fill="#5AA5FF" x="18" y="0" width="1" height="26"/><rect fill="#5FA0FF" x="19" y="0" width="1" height="26"/><rect fill="#649BFF" x="20" y="0" width="1" height="26"/><rect fill="#6996FF" x="21" y="0" width="1" height="26"/><rect fill="#6E91FF" x="22" y="0" width="1" height="26"/><rect fill="#738CFF" x="23" y="0" width="1" height="26"/><rect fill="#7887FF" x="24" y="0" width="1" height="26"/><rect fill="#7D82FF" x="25" y="0" width="1" height="26"/><rect fill="#827DFF" x="26" y="0" width="1" height="26"/><rect fill="#8778FF" x="27" y="0" width="1" height="26"/><rect fill="#8C73FF" x="28" y="0" width="1" height="26"/><rect fill="#916EFF" x="29" y="0" width="1" height="26"/><rect fill="#9669FF" x="30" y="0" width="1" height="26"/><rect fill="#9B64FF" x="31" y="0" width="1" height="26"/><rect fill="#A05FFF" x="32" y="0" width="1" height="26"/><rect fill="#A55AFF" x="33" y="0" width="1" height="26"/><rect fill="#AA55FF" x="34" y="0" width="1" height="26"/><rect fill="#AF50FF" x="35" y="0" width="1" height="26"/><rect fill="#B44BFF" x="36" y="0" width="1" height="26"/><rect fill="#B946FF" x="37" y="0" width="1" height="26"/><rect fill="#BE41FF" x="38" y="0" width="1" height="26"/><rect fill="#C33CFF" x="39" y="0" width="1" height="26"/><rect fill="#C837FF" x="40" y="0" width="1" height="26"/><rect fill="#CD32FF" x="41" y="0" width="1" height="26"/><rect fill="#D22DFF" x="42" y="0" width="1" height="26"/><rect fill="#D728FF" x="43" y="0" width="1" height="26"/><rect fill="#DC23FF" x="44" y="0" width="1" height="26"/><rect fill="#E11EFF" x="45" y="0" width="1" height="26"/><rect fill="#E619FF" x="46" y="0" width="1" height="26"/><rect fill="#EB14FF" x="47" y="0" width="1" height="26"/><rect fill="#F00FFF" x="48" y="0" width="1" height="26"/><rect fill="#F50AFF" x="49" y="0" width="1" height="26"/><rect fill="#FA05FF" x="50" y="0" width="1" height="26"/><rect fill="#FF00FF" x="51" y="0" width="1" height="26"/></svg>