<svg width="52" height="26" viewBox="0 0 52 26" fill="none" xmlns="http://www.w3.org/2000/svg"><rect fill="#000000" x="0" y="0" width="1" height="26"/><rect fill="#060302" x="1" y="0" width="1" height="26"/><rect fill="#0C0704" x="2" y="0" width="1" height="26"/><rect fill="#120B07" x="3" y="0" width="1" height="26"/><rect fill="#180F09" x="4" y="0" width="1" height="26"/><rect fill="#1E130C" x="5" y="0" width="1" height="26"/><rect fill="#25170E" x="6" y="0" width="1" height="26"/><rect fill="#2B1B11" x="7" y="0" width="1" height="26"/><rect fill="#311F13" x="8" y="0" width="1" height="26"/><rect fill="#372316" x="9" y="0" width="1" height="26"/><rect fill="#3D2718" x="10" y="0" width="1" height="26"/><rect fill="#442A1B" x="11" y="0" width="1" height="26"/><rect fill="#4A2E1D" x="12" y="0" width="1" height="26"/><rect fill="#503220" x="13" y="0" width="1" height="26"/><rect fill="#563622" x="14" y="0" width="1" height="26"/><rect fill="#5C3A25" x="15" y="0" width="1" height="26"/><rect fill="#633E27" x="16" y="0" width="1" height="26"/><rect fill="#69422A" x="17" y="0" width="1" height="26"/><rect fill="#6F462C" x="18" y="0" width="1" height="26"/><rect fill="#754A2E" x="19" y="0" width="1" height="26"/><rect fill="#7B4E31" x="20" y="0" width="1" height="26"/><rect fill="#815133" x="21" y="0" width="1" height="26"/><rect fill="#885536" x="22" y="0" width="1" height="26"/><rect fill="#8E5938" x="23" y="0" width="1" height="26"/><rect fill="#945D3B" x="24" y="0" width="1" height="26"/><rect fill="#9A613D" x="25" y="0" width="1" height="26"/><rect fill="#A06540" x="26" y="0" width="1" height="26"/><rect fill="#A76942" x="27" y="0" width="1" height="26"/><rect fill="#AD6D45" x="28" y="0" width="1" height="26"/><rect fill="#B37147" x="29" y="0" width="1" height="26"/><rect fill="#B9754A" x="30" y="0" width="1" height="26"/><rect fill="#BF784C" x="31" y="0" width="1" height="26"/><rect fill="#C67C4F" x="32" y="0" width="1" height="26"/><rect fill="#CC8051" x="33" y="0" width="1" height="26"/><rect fill="#D28454" x="34" y="0" width="1" height="26"/><rect fill="#D88856" x="35" y="0" width="1" height="26"/><rect fill="#DE8C58" x="36" y="0" width="1" height="26"/><rect fill="#E5905B" x="37" y="0" width="1" height="26"/><rect fill="#EB945D" x="38" y="0" width="1" height="26"/><rect fill="#F19860" x="39" y="0" width="1" height="26"/><rect fill="#F79C62" x="40" y="0" width="1" height="26"/><rect fill="#FD9F65" x="41" y="0" width="1" height="26"/><rect fill="#FFA367" x="42" y="0" width="1" height="26"/><rect fill="#FFA76A" x="43" y="0" width="1" height="26"/><rect fill="#FFAB6C" x="44" y="0" width="1" height="26"/><rect fill="#FFAF6F" x="45" y="0" width="1" height="26"/><rect fill="#FFB371" x="46" y="0" width="1" height="26"/><rect fill="#FFB774" x="47" y="0" width="1" height="26"/><rect fill="#FFBB76" x="48" y="0" width="1" height="26"/><rect fill="#FFBF79" x="49" y="0" width="1" height="26"/><rect fill="#FFC37B" x="50" y="0" width="1" height="26"/><rect fill="#FFC77E" x="51" y="0" width="1" height="26"/></svg>