<svg width="52" height="26" viewBox="0 0 52 26" fill="none" xmlns="http://www.w3.org/2000/svg"><rect fill="#8A63D2" x="0" y="0" width="1" height="26"/><rect fill="#8C66D2" x="1" y="0" width="1" height="26"/><rect fill="#8E69D3" x="2" y="0" width="1" height="26"/><rect fill="#906CD4" x="3" y="0" width="1" height="26"/><rect fill="#936FD5" x="4" y="0" width="1" height="26"/><rect fill="#9572D6" x="5" y="0" width="1" height="26"/><rect fill="#9775D7" x="6" y="0" width="1" height="26"/><rect fill="#9A78D8" x="7" y="0" width="1" height="26"/><rect fill="#9C7BD9" x="8" y="0" width="1" height="26"/><rect fill="#9E7ED9" x="9" y="0" width="1" height="26"/><rect fill="#A081DA" x="10" y="0" width="1" height="26"/><rect fill="#A384DB" x="11" y="0" width="1" height="26"/><rect fill="#A587DC" x="12" y="0" width="1" height="26"/><rect fill="#A78ADD" x="13" y="0" width="1" height="26"/><rect fill="#AA8DDE" x="14" y="0" width="1" height="26"/><rect fill="#AC90DF" x="15" y="0" width="1" height="26"/><rect fill="#AE93E0" x="16" y="0" width="1" height="26"/><rect fill="#B197E1" x="17" y="0" width="1" height="26"/><rect fill="#B39AE1" x="18" y="0" width="1" height="26"/><rect fill="#B59DE2" x="19" y="0" width="1" height="26"/><rect fill="#B7A0E3" x="20" y="0" width="1" height="26"/><rect fill="#BAA3E4" x="21" y="0" width="1" height="26"/><rect fill="#BCA6E5" x="22" y="0" width="1" height="26"/><rect fill="#BEA9E6" x="23" y="0" width="1" height="26"/><rect fill="#C1ACE7" x="24" y="0" width="1" height="26"/><rect fill="#C3AFE8" x="25" y="0" width="1" height="26"/><rect fill="#C5B2E8" x="26" y="0" width="1" height="26"/><rect fill="#C7B5E9" x="27" y="0" width="1" height="26"/><rect fill="#CAB8EA" x="28" y="0" width="1" height="26"/><rect fill="#CCBBEB" x="29" y="0" width="1" height="26"/><rect fill="#CEBEEC" x="30" y="0" width="1" height="26"/><rect fill="#D1C1ED" x="31" y="0" width="1" height="26"/><rect fill="#D3C4EE" x="32" y="0" width="1" height="26"/><rect fill="#D5C7EF" x="33" y="0" width="1" height="26"/><rect fill="#D8CBF0" x="34" y="0" width="1" height="26"/><rect fill="#DACEF0" x="35" y="0" width="1" height="26"/><rect fill="#DCD1F1" x="36" y="0" width="1" height="26"/><rect fill="#DED4F2" x="37" y="0" width="1" height="26"/><rect fill="#E1D7F3" x="38" y="0" width="1" height="26"/><rect fill="#E3DAF4" x="39" y="0" width="1" height="26"/><rect fill="#E5DDF5" x="40" y="0" width="1" height="26"/><rect fill="#E8E0F6" x="41" y="0" width="1" height="26"/><rect fill="#EAE3F7" x="42" y="0" width="1" height="26"/><rect fill="#ECE6F7" x="43" y="0" width="1" height="26"/><rect fill="#EEE9F8" x="44" y="0" width="1" height="26"/><rect fill="#F1ECF9" x="45" y="0" width="1" height="26"/><rect fill="#F3EFFA" x="46" y="0" width="1" height="26"/><rect fill="#F5F2FB" x="47" y="0" width="1" height="26"/><rect fill="#F8F5FC" x="48" y="0" width="1" height="26"/><rect fill="#FAF8FD" x="49" y="0" width="1" height="26"/><rect fill="#FCFBFE" x="50" y="0" width="1" height="26"/><rect fill="#FFFFFF" x="51" y="0" width="1" height="26"/></svg>