<svg width="52" height="26" viewBox="0 0 52 26" fill="none" xmlns="http://www.w3.org/2000/svg"><rect fill="#FF0028" x="0" y="0" width="1" height="26"/><rect fill="#FF000C" x="1" y="0" width="1" height="26"/><rect fill="#FF1000" x="2" y="0" width="1" height="26"/><rect fill="#FF2B00" x="3" y="0" width="1" height="26"/><rect fill="#FF4600" x="4" y="0" width="1" height="26"/><rect fill="#FF6100" x="5" y="0" width="1" height="26"/><rect fill="#FF7C00" x="6" y="0" width="1" height="26"/><rect fill="#FF9700" x="7" y="0" width="1" height="26"/><rect fill="#FFB300" x="8" y="0" width="1" height="26"/><rect fill="#FFCE00" x="9" y="0" width="1" height="26"/><rect fill="#FFE900" x="10" y="0" width="1" height="26"/><rect fill="#FAFF00" x="11" y="0" width="1" height="26"/><rect fill="#E0FF00" x="12" y="0" width="1" height="26"/><rect fill="#C5FF00" x="13" y="0" width="1" height="26"/><rect fill="#AAFF00" x="14" y="0" width="1" height="26"/><rect fill="#90FF00" x="15" y="0" width="1" height="26"/><rect fill="#75FF00" x="16" y="0" width="1" height="26"/><rect fill="#5BFF00" x="17" y="0" width="1" height="26"/><rect fill="#40FF00" x="18" y="0" width="1" height="26"/><rect fill="#26FF00" x="19" y="0" width="1" height="26"/><rect fill="#0BFF00" x="20" y="0" width="1" height="26"/><rect fill="#00FF10" x="21" y="0" width="1" height="26"/><rect fill="#00FF2B" x="22" y="0" width="1" height="26"/><rect fill="#00FF46" x="23" y="0" width="1" height="26"/><rect fill="#00FF61" x="24" y="0" width="1" height="26"/><rect fill="#00FF7C" x="25" y="0" width="1" height="26"/><rect fill="#00FF97" x="26" y="0" width="1" height="26"/><rect fill="#00FFB3" x="27" y="0" width="1" height="26"/><rect fill="#00FFCE" x="28" y="0" width="1" height="26"/><rect fill="#00FFE9" x="29" y="0" width="1" height="26"/><rect fill="#00FAFF" x="30" y="0" width="1" height="26"/><rect fill="#00DFFF" x="31" y="0" width="1" height="26"/><rect fill="#00C4FF" x="32" y="0" width="1" height="26"/><rect fill="#00A9FF" x="33" y="0" width="1" height="26"/><rect fill="#008EFF" x="34" y="0" width="1" height="26"/><rect fill="#0072FF" x="35" y="0" width="1" height="26"/><rect fill="#0057FF" x="36" y="0" width="1" height="26"/><rect fill="#003CFF" x="37" y="0" width="1" height="26"/><rect fill="#0021FF" x="38" y="0" width="1" height="26"/><rect fill="#0006FF" x="39" y="0" width="1" height="26"/><rect fill="#1500FF" x="40" y="0" width="1" height="26"/><rect fill="#3000FF" x="41" y="0" width="1" height="26"/><rect fill="#4B00FF" x="42" y="0" width="1" height="26"/><rect fill="#6700FF" x="43" y="0" width="1" height="26"/><rect fill="#8200FF" x="44" y="0" width="1" height="26"/><rect fill="#9D00FF" x="45" y="0" width="1" height="26"/><rect fill="#B800FF" x="46" y="0" width="1" height="26"/><rect fill="#D300FF" x="47" y="0" width="1" height="26"/><rect fill="#EE00FF" x="48" y="0" width="1" height="26"/><rect fill="#FF00F5" x="49" y="0" width="1" height="26"/><rect fill="#FF00DA" x="50" y="0" width="1" height="26"/><rect fill="#FF00BF" x="51" y="0" width="1" height="26"/></svg>