<svg width="52" height="26" viewBox="0 0 52 26" fill="none" xmlns="http://www.w3.org/2000/svg"><rect fill="#000000" x="0" y="0" width="1" height="26"/><rect fill="#62050A" x="1" y="0" width="1" height="26"/><rect fill="#C40A14" x="2" y="0" width="1" height="26"/><rect fill="#F60F1E" x="3" y="0" width="1" height="26"/><rect fill="#DD1428" x="4" y="0" width="1" height="26"/><rect fill="#C41932" x="5" y="0" width="1" height="26"/><rect fill="#AB1E3C" x="6" y="0" width="1" height="26"/><rect fill="#922346" x="7" y="0" width="1" height="26"/><rect fill="#792850" x="8" y="0" width="1" height="26"/><rect fill="#602D5A" x="9" y="0" width="1" height="26"/><rect fill="#473264" x="10" y="0" width="1" height="26"/><rect fill="#2E376E" x="11" y="0" width="1" height="26"/><rect fill="#153C78" x="12" y="0" width="1" height="26"/><rect fill="#414182" x="13" y="0" width="1" height="26"/><rect fill="#46468C" x="14" y="0" width="1" height="26"/><rect fill="#4B4B96" x="15" y="0" width="1" height="26"/><rect fill="#5050A0" x="16" y="0" width="1" height="26"/><rect fill="#5555AA" x="17" y="0" width="1" height="26"/><rect fill="#5A5AB4" x="18" y="0" width="1" height="26"/><rect fill="#5F5FBE" x="19" y="0" width="1" height="26"/><rect fill="#6464C8" x="20" y="0" width="1" height="26"/><rect fill="#6969D2" x="21" y="0" width="1" height="26"/><rect fill="#6E6EDC" x="22" y="0" width="1" height="26"/><rect fill="#7373E6" x="23" y="0" width="1" height="26"/><rect fill="#7878F0" x="24" y="0" width="1" height="26"/><rect fill="#7D7DFA" x="25" y="0" width="1" height="26"/><rect fill="#8282F3" x="26" y="0" width="1" height="26"/><rect fill="#8787DD" x="27" y="0" width="1" height="26"/><rect fill="#8C8CC8" x="28" y="0" width="1" height="26"/><rect fill="#9191B3" x="29" y="0" width="1" height="26"/><rect fill="#96969E" x="30" y="0" width="1" height="26"/><rect fill="#9B9B88" x="31" y="0" width="1" height="26"/><rect fill="#A0A073" x="32" y="0" width="1" height="26"/><rect fill="#A5A55E" x="33" y="0" width="1" height="26"/><rect fill="#AAAA49" x="34" y="0" width="1" height="26"/><rect fill="#AFAF33" x="35" y="0" width="1" height="26"/><rect fill="#B4B41E" x="36" y="0" width="1" height="26"/><rect fill="#B9B909" x="37" y="0" width="1" height="26"/><rect fill="#BEBE0B" x="38" y="0" width="1" height="26"/><rect fill="#C3C31E" x="39" y="0" width="1" height="26"/><rect fill="#C8C830" x="40" y="0" width="1" height="26"/><rect fill="#CDCD43" x="41" y="0" width="1" height="26"/><rect fill="#D2D256" x="42" y="0" width="1" height="26"/><rect fill="#D7D769" x="43" y="0" width="1" height="26"/><rect fill="#DCDC7B" x="44" y="0" width="1" height="26"/><rect fill="#E1E18E" x="45" y="0" width="1" height="26"/><rect fill="#E6E6A1" x="46" y="0" width="1" height="26"/><rect fill="#EBEBB4" x="47" y="0" width="1" height="26"/><rect fill="#F0F0C6" x="48" y="0" width="1" height="26"/><rect fill="#F5F5D9" x="49" y="0" width="1" height="26"/><rect fill="#FAFAEC" x="50" y="0" width="1" height="26"/><rect fill="#FFFFFF" x="51" y="0" width="1" height="26"/></svg>