<svg width="52" height="26" viewBox="0 0 52 26" fill="none" xmlns="http://www.w3.org/2000/svg"><rect fill="#000000" x="0" y="0" width="1" height="26"/><rect fill="#23001F" x="1" y="0" width="1" height="26"/><rect fill="#32003E" x="2" y="0" width="1" height="26"/><rect fill="#3D005C" x="3" y="0" width="1" height="26"/><rect fill="#470078" x="4" y="0" width="1" height="26"/><rect fill="#4F0093" x="5" y="0" width="1" height="26"/><rect fill="#5700AB" x="6" y="0" width="1" height="26"/><rect fill="#5E00C1" x="7" y="0" width="1" height="26"/><rect fill="#6400D4" x="8" y="0" width="1" height="26"/><rect fill="#6B01E4" x="9" y="0" width="1" height="26"/><rect fill="#7001F0" x="10" y="0" width="1" height="26"/><rect fill="#7602F9" x="11" y="0" width="1" height="26"/><rect fill="#7B03FD" x="12" y="0" width="1" height="26"/><rect fill="#8004FE" x="13" y="0" width="1" height="26"/><rect fill="#8505FB" x="14" y="0" width="1" height="26"/><rect fill="#8A06F5" x="15" y="0" width="1" height="26"/><rect fill="#8E07EA" x="16" y="0" width="1" height="26"/><rect fill="#9309DC" x="17" y="0" width="1" height="26"/><rect fill="#970BCB" x="18" y="0" width="1" height="26"/><rect fill="#9B0DB7" x="19" y="0" width="1" height="26"/><rect fill="#9F0F9F" x="20" y="0" width="1" height="26"/><rect fill="#A31186" x="21" y="0" width="1" height="26"/><rect fill="#A7146A" x="22" y="0" width="1" height="26"/><rect fill="#AB174D" x="23" y="0" width="1" height="26"/><rect fill="#AE1A2E" x="24" y="0" width="1" height="26"/><rect fill="#B21E0F" x="25" y="0" width="1" height="26"/><rect fill="#B62100" x="26" y="0" width="1" height="26"/><rect fill="#B92500" x="27" y="0" width="1" height="26"/><rect fill="#BC2A00" x="28" y="0" width="1" height="26"/><rect fill="#C02E00" x="29" y="0" width="1" height="26"/><rect fill="#C33300" x="30" y="0" width="1" height="26"/><rect fill="#C63900" x="31" y="0" width="1" height="26"/><rect fill="#C93E00" x="32" y="0" width="1" height="26"/><rect fill="#CD4500" x="33" y="0" width="1" height="26"/><rect fill="#D04B00" x="34" y="0" width="1" height="26"/><rect fill="#D35200" x="35" y="0" width="1" height="26"/><rect fill="#D65900" x="36" y="0" width="1" height="26"/><rect fill="#D96100" x="37" y="0" width="1" height="26"/><rect fill="#DC6900" x="38" y="0" width="1" height="26"/><rect fill="#DE7200" x="39" y="0" width="1" height="26"/><rect fill="#E17B00" x="40" y="0" width="1" height="26"/><rect fill="#E48400" x="41" y="0" width="1" height="26"/><rect fill="#E78E00" x="42" y="0" width="1" height="26"/><rect fill="#EA9800" x="43" y="0" width="1" height="26"/><rect fill="#ECA300" x="44" y="0" width="1" height="26"/><rect fill="#EFAF00" x="45" y="0" width="1" height="26"/><rect fill="#F2BB00" x="46" y="0" width="1" height="26"/><rect fill="#F4C700" x="47" y="0" width="1" height="26"/><rect fill="#F7D400" x="48" y="0" width="1" height="26"/><rect fill="#F9E200" x="49" y="0" width="1" height="26"/><rect fill="#FCF000" x="50" y="0" width="1" height="26"/><rect fill="#FEFE00" x="51" y="0" width="1" height="26"/></svg>