<svg width="52" height="26" viewBox="0 0 52 26" fill="none" xmlns="http://www.w3.org/2000/svg"><rect fill="#0A0000" x="0" y="0" width="1" height="26"/><rect fill="#170000" x="1" y="0" width="1" height="26"/><rect fill="#240000" x="2" y="0" width="1" height="26"/><rect fill="#310000" x="3" y="0" width="1" height="26"/><rect fill="#3E0000" x="4" y="0" width="1" height="26"/><rect fill="#4B0000" x="5" y="0" width="1" height="26"/><rect fill="#590000" x="6" y="0" width="1" height="26"/><rect fill="#660000" x="7" y="0" width="1" height="26"/><rect fill="#730000" x="8" y="0" width="1" height="26"/><rect fill="#800000" x="9" y="0" width="1" height="26"/><rect fill="#8D0000" x="10" y="0" width="1" height="26"/><rect fill="#9A0000" x="11" y="0" width="1" height="26"/><rect fill="#A80000" x="12" y="0" width="1" height="26"/><rect fill="#B50000" x="13" y="0" width="1" height="26"/><rect fill="#C20000" x="14" y="0" width="1" height="26"/><rect fill="#CF0000" x="15" y="0" width="1" height="26"/><rect fill="#DC0000" x="16" y="0" width="1" height="26"/><rect fill="#E90000" x="17" y="0" width="1" height="26"/><rect fill="#F70000" x="18" y="0" width="1" height="26"/><rect fill="#FF0500" x="19" y="0" width="1" height="26"/><rect fill="#FF1200" x="20" y="0" width="1" height="26"/><rect fill="#FF1F00" x="21" y="0" width="1" height="26"/><rect fill="#FF2C00" x="22" y="0" width="1" height="26"/><rect fill="#FF3900" x="23" y="0" width="1" height="26"/><rect fill="#FF4600" x="24" y="0" width="1" height="26"/><rect fill="#FF5400" x="25" y="0" width="1" height="26"/><rect fill="#FF6100" x="26" y="0" width="1" height="26"/><rect fill="#FF6E00" x="27" y="0" width="1" height="26"/><rect fill="#FF7B00" x="28" y="0" width="1" height="26"/><rect fill="#FF8800" x="29" y="0" width="1" height="26"/><rect fill="#FF9500" x="30" y="0" width="1" height="26"/><rect fill="#FFA200" x="31" y="0" width="1" height="26"/><rect fill="#FFB000" x="32" y="0" width="1" height="26"/><rect fill="#FFBD00" x="33" y="0" width="1" height="26"/><rect fill="#FFCA00" x="34" y="0" width="1" height="26"/><rect fill="#FFD700" x="35" y="0" width="1" height="26"/><rect fill="#FFE400" x="36" y="0" width="1" height="26"/><rect fill="#FFF100" x="37" y="0" width="1" height="26"/><rect fill="#FFFF00" x="38" y="0" width="1" height="26"/><rect fill="#FFFF13" x="39" y="0" width="1" height="26"/><rect fill="#FFFF27" x="40" y="0" width="1" height="26"/><rect fill="#FFFF3A" x="41" y="0" width="1" height="26"/><rect fill="#FFFF4E" x="42" y="0" width="1" height="26"/><rect fill="#FFFF62" x="43" y="0" width="1" height="26"/><rect fill="#FFFF75" x="44" y="0" width="1" height="26"/><rect fill="#FFFF89" x="45" y="0" width="1" height="26"/><rect fill="#FFFF9C" x="46" y="0" width="1" height="26"/><rect fill="#FFFFB0" x="47" y="0" width="1" height="26"/><rect fill="#FFFFC4" x="48" y="0" width="1" height="26"/><rect fill="#FFFFD7" x="49" y="0" width="1" height="26"/><rect fill="#FFFFEB" x="50" y="0" width="1" height="26"/><rect fill="#FFFFFF" x="51" y="0" width="1" height="26"/></svg>