<svg width="52" height="26" viewBox="0 0 52 26" fill="none" xmlns="http://www.w3.org/2000/svg"><rect fill="#FF0000" x="0" y="0" width="1" height="26"/><rect fill="#FF1D00" x="1" y="0" width="1" height="26"/><rect fill="#FF3B00" x="2" y="0" width="1" height="26"/><rect fill="#FF5900" x="3" y="0" width="1" height="26"/><rect fill="#FF7700" x="4" y="0" width="1" height="26"/><rect fill="#FF9500" x="5" y="0" width="1" height="26"/><rect fill="#FFB300" x="6" y="0" width="1" height="26"/><rect fill="#FFD100" x="7" y="0" width="1" height="26"/><rect fill="#FFEF00" x="8" y="0" width="1" height="26"/><rect fill="#F1FF00" x="9" y="0" width="1" height="26"/><rect fill="#D3FF00" x="10" y="0" width="1" height="26"/><rect fill="#B5FF00" x="11" y="0" width="1" height="26"/><rect fill="#97FF00" x="12" y="0" width="1" height="26"/><rect fill="#79FF00" x="13" y="0" width="1" height="26"/><rect fill="#5BFF00" x="14" y="0" width="1" height="26"/><rect fill="#3DFF00" x="15" y="0" width="1" height="26"/><rect fill="#1FFF00" x="16" y="0" width="1" height="26"/><rect fill="#06FF03" x="17" y="0" width="1" height="26"/><rect fill="#00FF15" x="18" y="0" width="1" height="26"/><rect fill="#00FF33" x="19" y="0" width="1" height="26"/><rect fill="#00FF51" x="20" y="0" width="1" height="26"/><rect fill="#00FF6F" x="21" y="0" width="1" height="26"/><rect fill="#00FF8D" x="22" y="0" width="1" height="26"/><rect fill="#00FFAB" x="23" y="0" width="1" height="26"/><rect fill="#00FFC9" x="24" y="0" width="1" height="26"/><rect fill="#00FFE7" x="25" y="0" width="1" height="26"/><rect fill="#00FAFF" x="26" y="0" width="1" height="26"/><rect fill="#00DCFF" x="27" y="0" width="1" height="26"/><rect fill="#00BFFF" x="28" y="0" width="1" height="26"/><rect fill="#00A2FF" x="29" y="0" width="1" height="26"/><rect fill="#0085FF" x="30" y="0" width="1" height="26"/><rect fill="#0067FF" x="31" y="0" width="1" height="26"/><rect fill="#004AFF" x="32" y="0" width="1" height="26"/><rect fill="#002DFF" x="33" y="0" width="1" height="26"/><rect fill="#000FFF" x="34" y="0" width="1" height="26"/><rect fill="#0D00FF" x="35" y="0" width="1" height="26"/><rect fill="#2B00FF" x="36" y="0" width="1" height="26"/><rect fill="#4900FF" x="37" y="0" width="1" height="26"/><rect fill="#6700FF" x="38" y="0" width="1" height="26"/><rect fill="#8500FF" x="39" y="0" width="1" height="26"/><rect fill="#A300FF" x="40" y="0" width="1" height="26"/><rect fill="#C100FF" x="41" y="0" width="1" height="26"/><rect fill="#DF00FF" x="42" y="0" width="1" height="26"/><rect fill="#F900FB" x="43" y="0" width="1" height="26"/><rect fill="#FF00E4" x="44" y="0" width="1" height="26"/><rect fill="#FF00C7" x="45" y="0" width="1" height="26"/><rect fill="#FF00A9" x="46" y="0" width="1" height="26"/><rect fill="#FF008C" x="47" y="0" width="1" height="26"/><rect fill="#FF006F" x="48" y="0" width="1" height="26"/><rect fill="#FF0052" x="49" y="0" width="1" height="26"/><rect fill="#FF0035" x="50" y="0" width="1" height="26"/><rect fill="#FF0017" x="51" y="0" width="1" height="26"/></svg>