<svg width="52" height="26" viewBox="0 0 52 26" fill="none" xmlns="http://www.w3.org/2000/svg"><rect fill="#00007F" x="0" y="0" width="1" height="26"/><rect fill="#000095" x="1" y="0" width="1" height="26"/><rect fill="#0000AC" x="2" y="0" width="1" height="26"/><rect fill="#0000C3" x="3" y="0" width="1" height="26"/><rect fill="#0000DA" x="4" y="0" width="1" height="26"/><rect fill="#0000F1" x="5" y="0" width="1" height="26"/><rect fill="#0000FF" x="6" y="0" width="1" height="26"/><rect fill="#000FFF" x="7" y="0" width="1" height="26"/><rect fill="#0023FF" x="8" y="0" width="1" height="26"/><rect fill="#0037FF" x="9" y="0" width="1" height="26"/><rect fill="#004BFF" x="10" y="0" width="1" height="26"/><rect fill="#005FFF" x="11" y="0" width="1" height="26"/><rect fill="#0073FF" x="12" y="0" width="1" height="26"/><rect fill="#0087FF" x="13" y="0" width="1" height="26"/><rect fill="#009BFF" x="14" y="0" width="1" height="26"/><rect fill="#00AFFF" x="15" y="0" width="1" height="26"/><rect fill="#00C3FF" x="16" y="0" width="1" height="26"/><rect fill="#00D7FF" x="17" y="0" width="1" height="26"/><rect fill="#03EBF3" x="18" y="0" width="1" height="26"/><rect fill="#13FFE2" x="19" y="0" width="1" height="26"/><rect fill="#23FFD2" x="20" y="0" width="1" height="26"/><rect fill="#33FFC2" x="21" y="0" width="1" height="26"/><rect fill="#43FFB2" x="22" y="0" width="1" height="26"/><rect fill="#53FFA2" x="23" y="0" width="1" height="26"/><rect fill="#64FF92" x="24" y="0" width="1" height="26"/><rect fill="#74FF82" x="25" y="0" width="1" height="26"/><rect fill="#84FF71" x="26" y="0" width="1" height="26"/><rect fill="#94FF61" x="27" y="0" width="1" height="26"/><rect fill="#A4FF51" x="28" y="0" width="1" height="26"/><rect fill="#B4FF41" x="29" y="0" width="1" height="26"/><rect fill="#C4FF31" x="30" y="0" width="1" height="26"/><rect fill="#D5FF21" x="31" y="0" width="1" height="26"/><rect fill="#E5FF11" x="32" y="0" width="1" height="26"/><rect fill="#F5F800" x="33" y="0" width="1" height="26"/><rect fill="#FFE600" x="34" y="0" width="1" height="26"/><rect fill="#FFD300" x="35" y="0" width="1" height="26"/><rect fill="#FFC100" x="36" y="0" width="1" height="26"/><rect fill="#FFAE00" x="37" y="0" width="1" height="26"/><rect fill="#FF9C00" x="38" y="0" width="1" height="26"/><rect fill="#FF8900" x="39" y="0" width="1" height="26"/><rect fill="#FF7700" x="40" y="0" width="1" height="26"/><rect fill="#FF6400" x="41" y="0" width="1" height="26"/><rect fill="#FF5200" x="42" y="0" width="1" height="26"/><rect fill="#FF3F00" x="43" y="0" width="1" height="26"/><rect fill="#FF2D00" x="44" y="0" width="1" height="26"/><rect fill="#FF1A00" x="45" y="0" width="1" height="26"/><rect fill="#EE0800" x="46" y="0" width="1" height="26"/><rect fill="#D80000" x="47" y="0" width="1" height="26"/><rect fill="#C20000" x="48" y="0" width="1" height="26"/><rect fill="#AC0000" x="49" y="0" width="1" height="26"/><rect fill="#960000" x="50" y="0" width="1" height="26"/><rect fill="#7F0000" x="51" y="0" width="1" height="26"/></svg>