<svg width="52" height="26" viewBox="0 0 52 26" fill="none" xmlns="http://www.w3.org/2000/svg"><rect fill="#FF00FF" x="0" y="0" width="1" height="26"/><rect fill="#FF05FA" x="1" y="0" width="1" height="26"/><rect fill="#FF0AF5" x="2" y="0" width="1" height="26"/><rect fill="#FF0FF0" x="3" y="0" width="1" height="26"/><rect fill="#FF14EB" x="4" y="0" width="1" height="26"/><rect fill="#FF19E6" x="5" y="0" width="1" height="26"/><rect fill="#FF1EE1" x="6" y="0" width="1" height="26"/><rect fill="#FF23DC" x="7" y="0" width="1" height="26"/><rect fill="#FF28D7" x="8" y="0" width="1" height="26"/><rect fill="#FF2DD2" x="9" y="0" width="1" height="26"/><rect fill="#FF32CD" x="10" y="0" width="1" height="26"/><rect fill="#FF37C8" x="11" y="0" width="1" height="26"/><rect fill="#FF3CC3" x="12" y="0" width="1" height="26"/><rect fill="#FF41BE" x="13" y="0" width="1" height="26"/><rect fill="#FF46B9" x="14" y="0" width="1" height="26"/><rect fill="#FF4BB4" x="15" y="0" width="1" height="26"/><rect fill="#FF50AF" x="16" y="0" width="1" height="26"/><rect fill="#FF55AA" x="17" y="0" width="1" height="26"/><rect fill="#FF5AA5" x="18" y="0" width="1" height="26"/><rect fill="#FF5FA0" x="19" y="0" width="1" height="26"/><rect fill="#FF649B" x="20" y="0" width="1" height="26"/><rect fill="#FF6996" x="21" y="0" width="1" height="26"/><rect fill="#FF6E91" x="22" y="0" width="1" height="26"/><rect fill="#FF738C" x="23" y="0" width="1" height="26"/><rect fill="#FF7887" x="24" y="0" width="1" height="26"/><rect fill="#FF7D82" x="25" y="0" width="1" height="26"/><rect fill="#FF827D" x="26" y="0" width="1" height="26"/><rect fill="#FF8778" x="27" y="0" width="1" height="26"/><rect fill="#FF8C73" x="28" y="0" width="1" height="26"/><rect fill="#FF916E" x="29" y="0" width="1" height="26"/><rect fill="#FF9669" x="30" y="0" width="1" height="26"/><rect fill="#FF9B64" x="31" y="0" width="1" height="26"/><rect fill="#FFA05F" x="32" y="0" width="1" height="26"/><rect fill="#FFA55A" x="33" y="0" width="1" height="26"/><rect fill="#FFAA55" x="34" y="0" width="1" height="26"/><rect fill="#FFAF50" x="35" y="0" width="1" height="26"/><rect fill="#FFB44B" x="36" y="0" width="1" height="26"/><rect fill="#FFB946" x="37" y="0" width="1" height="26"/><rect fill="#FFBE41" x="38" y="0" width="1" height="26"/><rect fill="#FFC33C" x="39" y="0" width="1" height="26"/><rect fill="#FFC837" x="40" y="0" width="1" height="26"/><rect fill="#FFCD32" x="41" y="0" width="1" height="26"/><rect fill="#FFD22D" x="42" y="0" width="1" height="26"/><rect fill="#FFD728" x="43" y="0" width="1" height="26"/><rect fill="#FFDC23" x="44" y="0" width="1" height="26"/><rect fill="#FFE11E" x="45" y="0" width="1" height="26"/><rect fill="#FFE619" x="46" y="0" width="1" height="26"/><rect fill="#FFEB14" x="47" y="0" width="1" height="26"/><rect fill="#FFF00F" x="48" y="0" width="1" height="26"/><rect fill="#FFF50A" x="49" y="0" width="1" height="26"/><rect fill="#FFFA05" x="50" y="0" width="1" height="26"/><rect fill="#FFFF00" x="51" y="0" width="1" height="26"/></svg>