<svg width="52" height="26" viewBox="0 0 52 26" fill="none" xmlns="http://www.w3.org/2000/svg"><rect fill="#007F66" x="0" y="0" width="1" height="26"/><rect fill="#058166" x="1" y="0" width="1" height="26"/><rect fill="#0A8466" x="2" y="0" width="1" height="26"/><rect fill="#0F8666" x="3" y="0" width="1" height="26"/><rect fill="#148966" x="4" y="0" width="1" height="26"/><rect fill="#198B66" x="5" y="0" width="1" height="26"/><rect fill="#1E8E66" x="6" y="0" width="1" height="26"/><rect fill="#239066" x="7" y="0" width="1" height="26"/><rect fill="#289366" x="8" y="0" width="1" height="26"/><rect fill="#2D9566" x="9" y="0" width="1" height="26"/><rect fill="#329866" x="10" y="0" width="1" height="26"/><rect fill="#379A66" x="11" y="0" width="1" height="26"/><rect fill="#3C9D66" x="12" y="0" width="1" height="26"/><rect fill="#419F66" x="13" y="0" width="1" height="26"/><rect fill="#46A266" x="14" y="0" width="1" height="26"/><rect fill="#4BA466" x="15" y="0" width="1" height="26"/><rect fill="#50A766" x="16" y="0" width="1" height="26"/><rect fill="#55A966" x="17" y="0" width="1" height="26"/><rect fill="#5AAC66" x="18" y="0" width="1" height="26"/><rect fill="#5FAE66" x="19" y="0" width="1" height="26"/><rect fill="#64B166" x="20" y="0" width="1" height="26"/><rect fill="#69B366" x="21" y="0" width="1" height="26"/><rect fill="#6EB666" x="22" y="0" width="1" height="26"/><rect fill="#73B866" x="23" y="0" width="1" height="26"/><rect fill="#78BB66" x="24" y="0" width="1" height="26"/><rect fill="#7DBD66" x="25" y="0" width="1" height="26"/><rect fill="#82C066" x="26" y="0" width="1" height="26"/><rect fill="#87C266" x="27" y="0" width="1" height="26"/><rect fill="#8CC566" x="28" y="0" width="1" height="26"/><rect fill="#91C766" x="29" y="0" width="1" height="26"/><rect fill="#96CA66" x="30" y="0" width="1" height="26"/><rect fill="#9BCC66" x="31" y="0" width="1" height="26"/><rect fill="#A0CF66" x="32" y="0" width="1" height="26"/><rect fill="#A5D166" x="33" y="0" width="1" height="26"/><rect fill="#AAD466" x="34" y="0" width="1" height="26"/><rect fill="#AFD666" x="35" y="0" width="1" height="26"/><rect fill="#B4D966" x="36" y="0" width="1" height="26"/><rect fill="#B9DB66" x="37" y="0" width="1" height="26"/><rect fill="#BEDE66" x="38" y="0" width="1" height="26"/><rect fill="#C3E066" x="39" y="0" width="1" height="26"/><rect fill="#C8E366" x="40" y="0" width="1" height="26"/><rect fill="#CDE566" x="41" y="0" width="1" height="26"/><rect fill="#D2E866" x="42" y="0" width="1" height="26"/><rect fill="#D7EA66" x="43" y="0" width="1" height="26"/><rect fill="#DCED66" x="44" y="0" width="1" height="26"/><rect fill="#E1EF66" x="45" y="0" width="1" height="26"/><rect fill="#E6F266" x="46" y="0" width="1" height="26"/><rect fill="#EBF466" x="47" y="0" width="1" height="26"/><rect fill="#F0F766" x="48" y="0" width="1" height="26"/><rect fill="#F5F966" x="49" y="0" width="1" height="26"/><rect fill="#FAFC66" x="50" y="0" width="1" height="26"/><rect fill="#FFFF66" x="51" y="0" width="1" height="26"/></svg>