<svg width="52" height="26" viewBox="0 0 52 26" fill="none" xmlns="http://www.w3.org/2000/svg"><rect fill="#333399" x="0" y="0" width="1" height="26"/><rect fill="#2D40A6" x="1" y="0" width="1" height="26"/><rect fill="#264DB3" x="2" y="0" width="1" height="26"/><rect fill="#1F5BC1" x="3" y="0" width="1" height="26"/><rect fill="#1968CE" x="4" y="0" width="1" height="26"/><rect fill="#1276DC" x="5" y="0" width="1" height="26"/><rect fill="#0B83E9" x="6" y="0" width="1" height="26"/><rect fill="#0590F6" x="7" y="0" width="1" height="26"/><rect fill="#009DF3" x="8" y="0" width="1" height="26"/><rect fill="#00A7D5" x="9" y="0" width="1" height="26"/><rect fill="#00B1B6" x="10" y="0" width="1" height="26"/><rect fill="#00BB97" x="11" y="0" width="1" height="26"/><rect fill="#00C579" x="12" y="0" width="1" height="26"/><rect fill="#07CD67" x="13" y="0" width="1" height="26"/><rect fill="#1BD16B" x="14" y="0" width="1" height="26"/><rect fill="#2FD56F" x="15" y="0" width="1" height="26"/><rect fill="#43D973" x="16" y="0" width="1" height="26"/><rect fill="#57DD77" x="17" y="0" width="1" height="26"/><rect fill="#6BE17B" x="18" y="0" width="1" height="26"/><rect fill="#7FE57F" x="19" y="0" width="1" height="26"/><rect fill="#93E983" x="20" y="0" width="1" height="26"/><rect fill="#A7ED87" x="21" y="0" width="1" height="26"/><rect fill="#BBF18B" x="22" y="0" width="1" height="26"/><rect fill="#CFF58F" x="23" y="0" width="1" height="26"/><rect fill="#E3F993" x="24" y="0" width="1" height="26"/><rect fill="#F7FD97" x="25" y="0" width="1" height="26"/><rect fill="#F9F896" x="26" y="0" width="1" height="26"/><rect fill="#EFEB91" x="27" y="0" width="1" height="26"/><rect fill="#E5DE8B" x="28" y="0" width="1" height="26"/><rect fill="#DBD186" x="29" y="0" width="1" height="26"/><rect fill="#D1C581" x="30" y="0" width="1" height="26"/><rect fill="#C7B87B" x="31" y="0" width="1" height="26"/><rect fill="#BDAB76" x="32" y="0" width="1" height="26"/><rect fill="#B39E71" x="33" y="0" width="1" height="26"/><rect fill="#A9916B" x="34" y="0" width="1" height="26"/><rect fill="#9F8466" x="35" y="0" width="1" height="26"/><rect fill="#957860" x="36" y="0" width="1" height="26"/><rect fill="#8B6B5B" x="37" y="0" width="1" height="26"/><rect fill="#815E56" x="38" y="0" width="1" height="26"/><rect fill="#87655E" x="39" y="0" width="1" height="26"/><rect fill="#91726C" x="40" y="0" width="1" height="26"/><rect fill="#9B7E79" x="41" y="0" width="1" height="26"/><rect fill="#A58B86" x="42" y="0" width="1" height="26"/><rect fill="#AF9894" x="43" y="0" width="1" height="26"/><rect fill="#B9A5A1" x="44" y="0" width="1" height="26"/><rect fill="#C3B2AE" x="45" y="0" width="1" height="26"/><rect fill="#CDBEBC" x="46" y="0" width="1" height="26"/><rect fill="#D7CBC9" x="47" y="0" width="1" height="26"/><rect fill="#E1D8D6" x="48" y="0" width="1" height="26"/><rect fill="#EBE5E4" x="49" y="0" width="1" height="26"/><rect fill="#F5F2F1" x="50" y="0" width="1" height="26"/><rect fill="#FFFFFF" x="51" y="0" width="1" height="26"/></svg>