<svg width="52" height="26" viewBox="0 0 52 26" fill="none" xmlns="http://www.w3.org/2000/svg"><rect fill="#0000FF" x="0" y="0" width="1" height="26"/><rect fill="#0005FD" x="1" y="0" width="1" height="26"/><rect fill="#000AFA" x="2" y="0" width="1" height="26"/><rect fill="#000FF8" x="3" y="0" width="1" height="26"/><rect fill="#0014F5" x="4" y="0" width="1" height="26"/><rect fill="#0019F3" x="5" y="0" width="1" height="26"/><rect fill="#001EF0" x="6" y="0" width="1" height="26"/><rect fill="#0023EE" x="7" y="0" width="1" height="26"/><rect fill="#0028EB" x="8" y="0" width="1" height="26"/><rect fill="#002DE9" x="9" y="0" width="1" height="26"/><rect fill="#0032E6" x="10" y="0" width="1" height="26"/><rect fill="#0037E4" x="11" y="0" width="1" height="26"/><rect fill="#003CE1" x="12" y="0" width="1" height="26"/><rect fill="#0041DF" x="13" y="0" width="1" height="26"/><rect fill="#0046DC" x="14" y="0" width="1" height="26"/><rect fill="#004BDA" x="15" y="0" width="1" height="26"/><rect fill="#0050D7" x="16" y="0" width="1" height="26"/><rect fill="#0055D5" x="17" y="0" width="1" height="26"/><rect fill="#005AD2" x="18" y="0" width="1" height="26"/><rect fill="#005FD0" x="19" y="0" width="1" height="26"/><rect fill="#0064CD" x="20" y="0" width="1" height="26"/><rect fill="#0069CB" x="21" y="0" width="1" height="26"/><rect fill="#006EC8" x="22" y="0" width="1" height="26"/><rect fill="#0073C6" x="23" y="0" width="1" height="26"/><rect fill="#0078C3" x="24" y="0" width="1" height="26"/><rect fill="#007DC1" x="25" y="0" width="1" height="26"/><rect fill="#0082BE" x="26" y="0" width="1" height="26"/><rect fill="#0087BC" x="27" y="0" width="1" height="26"/><rect fill="#008CB9" x="28" y="0" width="1" height="26"/><rect fill="#0091B7" x="29" y="0" width="1" height="26"/><rect fill="#0096B4" x="30" y="0" width="1" height="26"/><rect fill="#009BB2" x="31" y="0" width="1" height="26"/><rect fill="#00A0AF" x="32" y="0" width="1" height="26"/><rect fill="#00A5AD" x="33" y="0" width="1" height="26"/><rect fill="#00AAAA" x="34" y="0" width="1" height="26"/><rect fill="#00AFA8" x="35" y="0" width="1" height="26"/><rect fill="#00B4A5" x="36" y="0" width="1" height="26"/><rect fill="#00B9A3" x="37" y="0" width="1" height="26"/><rect fill="#00BEA0" x="38" y="0" width="1" height="26"/><rect fill="#00C39E" x="39" y="0" width="1" height="26"/><rect fill="#00C89B" x="40" y="0" width="1" height="26"/><rect fill="#00CD99" x="41" y="0" width="1" height="26"/><rect fill="#00D296" x="42" y="0" width="1" height="26"/><rect fill="#00D794" x="43" y="0" width="1" height="26"/><rect fill="#00DC91" x="44" y="0" width="1" height="26"/><rect fill="#00E18F" x="45" y="0" width="1" height="26"/><rect fill="#00E68C" x="46" y="0" width="1" height="26"/><rect fill="#00EB8A" x="47" y="0" width="1" height="26"/><rect fill="#00F087" x="48" y="0" width="1" height="26"/><rect fill="#00F585" x="49" y="0" width="1" height="26"/><rect fill="#00FA82" x="50" y="0" width="1" height="26"/><rect fill="#00FF7F" x="51" y="0" width="1" height="26"/></svg>