<svg width="52" height="26" viewBox="0 0 52 26" fill="none" xmlns="http://www.w3.org/2000/svg"><rect fill="#E4FF7A" x="0" y="0" width="1" height="26"/><rect fill="#E6FE73" x="1" y="0" width="1" height="26"/><rect fill="#E8FC6B" x="2" y="0" width="1" height="26"/><rect fill="#EAFA64" x="3" y="0" width="1" height="26"/><rect fill="#ECF85C" x="4" y="0" width="1" height="26"/><rect fill="#EEF654" x="5" y="0" width="1" height="26"/><rect fill="#F0F54D" x="6" y="0" width="1" height="26"/><rect fill="#F3F345" x="7" y="0" width="1" height="26"/><rect fill="#F5F13E" x="8" y="0" width="1" height="26"/><rect fill="#F7EF36" x="9" y="0" width="1" height="26"/><rect fill="#F9ED2E" x="10" y="0" width="1" height="26"/><rect fill="#FBEB27" x="11" y="0" width="1" height="26"/><rect fill="#FDEA1F" x="12" y="0" width="1" height="26"/><rect fill="#FFE71A" x="13" y="0" width="1" height="26"/><rect fill="#FFE418" x="14" y="0" width="1" height="26"/><rect fill="#FFE016" x="15" y="0" width="1" height="26"/><rect fill="#FFDD14" x="16" y="0" width="1" height="26"/><rect fill="#FFDA12" x="17" y="0" width="1" height="26"/><rect fill="#FFD610" x="18" y="0" width="1" height="26"/><rect fill="#FFD30D" x="19" y="0" width="1" height="26"/><rect fill="#FFD00B" x="20" y="0" width="1" height="26"/><rect fill="#FFCC09" x="21" y="0" width="1" height="26"/><rect fill="#FFC907" x="22" y="0" width="1" height="26"/><rect fill="#FFC605" x="23" y="0" width="1" height="26"/><rect fill="#FFC203" x="24" y="0" width="1" height="26"/><rect fill="#FFBF01" x="25" y="0" width="1" height="26"/><rect fill="#FFBC00" x="26" y="0" width="1" height="26"/><rect fill="#FFBA00" x="27" y="0" width="1" height="26"/><rect fill="#FFB800" x="28" y="0" width="1" height="26"/><rect fill="#FFB500" x="29" y="0" width="1" height="26"/><rect fill="#FFB300" x="30" y="0" width="1" height="26"/><rect fill="#FFB100" x="31" y="0" width="1" height="26"/><rect fill="#FFAF00" x="32" y="0" width="1" height="26"/><rect fill="#FFAC00" x="33" y="0" width="1" height="26"/><rect fill="#FFAA00" x="34" y="0" width="1" height="26"/><rect fill="#FFA800" x="35" y="0" width="1" height="26"/><rect fill="#FFA500" x="36" y="0" width="1" height="26"/><rect fill="#FFA300" x="37" y="0" width="1" height="26"/><rect fill="#FFA100" x="38" y="0" width="1" height="26"/><rect fill="#FF9E00" x="39" y="0" width="1" height="26"/><rect fill="#FF9C00" x="40" y="0" width="1" height="26"/><rect fill="#FF9900" x="41" y="0" width="1" height="26"/><rect fill="#FF9700" x="42" y="0" width="1" height="26"/><rect fill="#FE9400" x="43" y="0" width="1" height="26"/><rect fill="#FE9200" x="44" y="0" width="1" height="26"/><rect fill="#FE8F00" x="45" y="0" width="1" height="26"/><rect fill="#FE8C00" x="46" y="0" width="1" height="26"/><rect fill="#FD8A00" x="47" y="0" width="1" height="26"/><rect fill="#FD8700" x="48" y="0" width="1" height="26"/><rect fill="#FD8500" x="49" y="0" width="1" height="26"/><rect fill="#FD8200" x="50" y="0" width="1" height="26"/><rect fill="#FC7F00" x="51" y="0" width="1" height="26"/></svg>